<svg xmlns="http://www.w3.org/2000/svg" width="1160" height="800" viewBox="0 0 1160 800" font-family="Helvetica, Arial, sans-serif">
<rect width="1160" height="800" fill="#ffffff"/>
<text x="580" y="34" font-size="23" font-weight="bold" text-anchor="middle" fill="#222222">Diagrama de despliegue · Prototipo RODE</text>
<rect x="60" y="210" width="330" height="250" rx="0" fill="#fbfcfe" stroke="#333333" stroke-width="1.8"/>
<polygon points="60,210 74,196 404,196 390,210" fill="#fbfcfe" stroke="#333333" stroke-width="1.8"/>
<polygon points="390,210 404,196 404,446 390,460" fill="#fbfcfe" stroke="#333333" stroke-width="1.8"/>
<text x="225" y="234" font-size="11" font-style="italic" text-anchor="middle" fill="#555">«device»</text>
<text x="225" y="254" font-size="13" text-anchor="middle" fill="#222222">Dispositivo de la emprendedora</text>
<text x="225" y="271" font-size="10.5" text-anchor="middle" fill="#777">(móvil o computador)</text>
<rect x="84" y="284" width="282" height="158" rx="0" fill="#eef3fb" stroke="#333333" stroke-width="1.6"/>
<text x="225" y="304" font-size="10.5" font-style="italic" text-anchor="middle" fill="#555">«execution environment»</text>
<text x="225" y="322" font-size="12.5" text-anchor="middle" fill="#222222">Navegador web</text>
<rect x="102" y="334" width="246" height="48" rx="0" fill="#ffffff" stroke="#333333" stroke-width="1.6"/>
<polygon points="326,342 334,342 338,346 338,357 326,357" fill="#ffffff" stroke="#333333" stroke-width="1.2"/>
<polygon points="334,342 334,346 338,346" fill="none" stroke="#333333" stroke-width="1.2"/>
<text x="114" y="353" font-size="10" font-style="italic" text-anchor="start" fill="#555">«artifact»</text>
<text x="114" y="369" font-size="12.5" text-anchor="start" fill="#222222">PWA RODE (build de React)</text>
<rect x="102" y="388" width="246" height="48" rx="0" fill="#ffffff" stroke="#333333" stroke-width="1.6"/>
<polygon points="326,396 334,396 338,400 338,411 326,411" fill="#ffffff" stroke="#333333" stroke-width="1.2"/>
<polygon points="334,396 334,400 338,400" fill="none" stroke="#333333" stroke-width="1.2"/>
<text x="114" y="407" font-size="10" font-style="italic" text-anchor="start" fill="#555">«artifact»</text>
<text x="114" y="423" font-size="12.5" text-anchor="start" fill="#222222">Service Worker · caché local</text>
<rect x="560" y="80" width="540" height="650" rx="0" fill="#fcfcfd" stroke="#333333" stroke-width="1.8"/>
<polygon points="560,80 574,66 1114,66 1100,80" fill="#fcfcfd" stroke="#333333" stroke-width="1.8"/>
<polygon points="1100,80 1114,66 1114,716 1100,730" fill="#fcfcfd" stroke="#333333" stroke-width="1.8"/>
<text x="830" y="104" font-size="11" font-style="italic" text-anchor="middle" fill="#555">«device»</text>
<text x="830" y="124" font-size="13.5" text-anchor="middle" fill="#222222">Servidor VPS — Oracle Cloud (ARM)</text>
<text x="830" y="141" font-size="10.5" text-anchor="middle" fill="#777">Ubuntu Server 24.04 LTS</text>
<rect x="582" y="156" width="496" height="494" rx="0" fill="#f8f9fb" stroke="#9aa0a6" stroke-width="1.4"/>
<text x="594" y="174" font-size="11" font-style="italic" text-anchor="start" fill="#555">«execution environment» Docker Engine</text>
<rect x="604" y="186" width="452" height="96" rx="0" fill="#ffffff" stroke="none" stroke-width="1.5"/>
<line x1="604" y1="186" x2="609" y2="186" stroke="#333333" stroke-width="1.5"/>
<line x1="613" y1="186" x2="618" y2="186" stroke="#333333" stroke-width="1.5"/>
<line x1="622" y1="186" x2="627" y2="186" stroke="#333333" stroke-width="1.5"/>
<line x1="631" y1="186" x2="636" y2="186" stroke="#333333" stroke-width="1.5"/>
<line x1="640" y1="186" x2="645" y2="186" stroke="#333333" stroke-width="1.5"/>
<line x1="649" y1="186" x2="654" y2="186" stroke="#333333" stroke-width="1.5"/>
<line x1="658" y1="186" x2="663" y2="186" stroke="#333333" stroke-width="1.5"/>
<line x1="667" y1="186" x2="672" y2="186" stroke="#333333" stroke-width="1.5"/>
<line x1="676" y1="186" x2="681" y2="186" stroke="#333333" stroke-width="1.5"/>
<line x1="685" y1="186" x2="690" y2="186" stroke="#333333" stroke-width="1.5"/>
<line x1="694" y1="186" x2="699" y2="186" stroke="#333333" stroke-width="1.5"/>
<line x1="703" y1="186" x2="708" y2="186" stroke="#333333" stroke-width="1.5"/>
<line x1="712" y1="186" x2="717" y2="186" stroke="#333333" stroke-width="1.5"/>
<line x1="721" y1="186" x2="726" y2="186" stroke="#333333" stroke-width="1.5"/>
<line x1="730" y1="186" x2="735" y2="186" stroke="#333333" stroke-width="1.5"/>
<line x1="739" y1="186" x2="744" y2="186" stroke="#333333" stroke-width="1.5"/>
<line x1="748" y1="186" x2="753" y2="186" stroke="#333333" stroke-width="1.5"/>
<line x1="757" y1="186" x2="762" y2="186" stroke="#333333" stroke-width="1.5"/>
<line x1="766" y1="186" x2="771" y2="186" stroke="#333333" stroke-width="1.5"/>
<line x1="775" y1="186" x2="780" y2="186" stroke="#333333" stroke-width="1.5"/>
<line x1="784" y1="186" x2="789" y2="186" stroke="#333333" stroke-width="1.5"/>
<line x1="793" y1="186" x2="798" y2="186" stroke="#333333" stroke-width="1.5"/>
<line x1="802" y1="186" x2="807" y2="186" stroke="#333333" stroke-width="1.5"/>
<line x1="811" y1="186" x2="816" y2="186" stroke="#333333" stroke-width="1.5"/>
<line x1="820" y1="186" x2="825" y2="186" stroke="#333333" stroke-width="1.5"/>
<line x1="829" y1="186" x2="834" y2="186" stroke="#333333" stroke-width="1.5"/>
<line x1="838" y1="186" x2="843" y2="186" stroke="#333333" stroke-width="1.5"/>
<line x1="847" y1="186" x2="852" y2="186" stroke="#333333" stroke-width="1.5"/>
<line x1="856" y1="186" x2="861" y2="186" stroke="#333333" stroke-width="1.5"/>
<line x1="865" y1="186" x2="870" y2="186" stroke="#333333" stroke-width="1.5"/>
<line x1="874" y1="186" x2="879" y2="186" stroke="#333333" stroke-width="1.5"/>
<line x1="883" y1="186" x2="888" y2="186" stroke="#333333" stroke-width="1.5"/>
<line x1="892" y1="186" x2="897" y2="186" stroke="#333333" stroke-width="1.5"/>
<line x1="901" y1="186" x2="906" y2="186" stroke="#333333" stroke-width="1.5"/>
<line x1="910" y1="186" x2="915" y2="186" stroke="#333333" stroke-width="1.5"/>
<line x1="919" y1="186" x2="924" y2="186" stroke="#333333" stroke-width="1.5"/>
<line x1="928" y1="186" x2="933" y2="186" stroke="#333333" stroke-width="1.5"/>
<line x1="937" y1="186" x2="942" y2="186" stroke="#333333" stroke-width="1.5"/>
<line x1="946" y1="186" x2="951" y2="186" stroke="#333333" stroke-width="1.5"/>
<line x1="955" y1="186" x2="960" y2="186" stroke="#333333" stroke-width="1.5"/>
<line x1="964" y1="186" x2="969" y2="186" stroke="#333333" stroke-width="1.5"/>
<line x1="973" y1="186" x2="978" y2="186" stroke="#333333" stroke-width="1.5"/>
<line x1="982" y1="186" x2="987" y2="186" stroke="#333333" stroke-width="1.5"/>
<line x1="991" y1="186" x2="996" y2="186" stroke="#333333" stroke-width="1.5"/>
<line x1="1000" y1="186" x2="1005" y2="186" stroke="#333333" stroke-width="1.5"/>
<line x1="1009" y1="186" x2="1014" y2="186" stroke="#333333" stroke-width="1.5"/>
<line x1="1018" y1="186" x2="1023" y2="186" stroke="#333333" stroke-width="1.5"/>
<line x1="1027" y1="186" x2="1032" y2="186" stroke="#333333" stroke-width="1.5"/>
<line x1="1036" y1="186" x2="1041" y2="186" stroke="#333333" stroke-width="1.5"/>
<line x1="1045" y1="186" x2="1050" y2="186" stroke="#333333" stroke-width="1.5"/>
<line x1="1054" y1="186" x2="1056" y2="186" stroke="#333333" stroke-width="1.5"/>
<line x1="1056" y1="186" x2="1056" y2="191" stroke="#333333" stroke-width="1.5"/>
<line x1="1056" y1="195" x2="1056" y2="200" stroke="#333333" stroke-width="1.5"/>
<line x1="1056" y1="204" x2="1056" y2="209" stroke="#333333" stroke-width="1.5"/>
<line x1="1056" y1="213" x2="1056" y2="218" stroke="#333333" stroke-width="1.5"/>
<line x1="1056" y1="222" x2="1056" y2="227" stroke="#333333" stroke-width="1.5"/>
<line x1="1056" y1="231" x2="1056" y2="236" stroke="#333333" stroke-width="1.5"/>
<line x1="1056" y1="240" x2="1056" y2="245" stroke="#333333" stroke-width="1.5"/>
<line x1="1056" y1="249" x2="1056" y2="254" stroke="#333333" stroke-width="1.5"/>
<line x1="1056" y1="258" x2="1056" y2="263" stroke="#333333" stroke-width="1.5"/>
<line x1="1056" y1="267" x2="1056" y2="272" stroke="#333333" stroke-width="1.5"/>
<line x1="1056" y1="276" x2="1056" y2="281" stroke="#333333" stroke-width="1.5"/>
<line x1="1056" y1="282" x2="1051" y2="282" stroke="#333333" stroke-width="1.5"/>
<line x1="1047" y1="282" x2="1042" y2="282" stroke="#333333" stroke-width="1.5"/>
<line x1="1038" y1="282" x2="1033" y2="282" stroke="#333333" stroke-width="1.5"/>
<line x1="1029" y1="282" x2="1024" y2="282" stroke="#333333" stroke-width="1.5"/>
<line x1="1020" y1="282" x2="1015" y2="282" stroke="#333333" stroke-width="1.5"/>
<line x1="1011" y1="282" x2="1006" y2="282" stroke="#333333" stroke-width="1.5"/>
<line x1="1002" y1="282" x2="997" y2="282" stroke="#333333" stroke-width="1.5"/>
<line x1="993" y1="282" x2="988" y2="282" stroke="#333333" stroke-width="1.5"/>
<line x1="984" y1="282" x2="979" y2="282" stroke="#333333" stroke-width="1.5"/>
<line x1="975" y1="282" x2="970" y2="282" stroke="#333333" stroke-width="1.5"/>
<line x1="966" y1="282" x2="961" y2="282" stroke="#333333" stroke-width="1.5"/>
<line x1="957" y1="282" x2="952" y2="282" stroke="#333333" stroke-width="1.5"/>
<line x1="948" y1="282" x2="943" y2="282" stroke="#333333" stroke-width="1.5"/>
<line x1="939" y1="282" x2="934" y2="282" stroke="#333333" stroke-width="1.5"/>
<line x1="930" y1="282" x2="925" y2="282" stroke="#333333" stroke-width="1.5"/>
<line x1="921" y1="282" x2="916" y2="282" stroke="#333333" stroke-width="1.5"/>
<line x1="912" y1="282" x2="907" y2="282" stroke="#333333" stroke-width="1.5"/>
<line x1="903" y1="282" x2="898" y2="282" stroke="#333333" stroke-width="1.5"/>
<line x1="894" y1="282" x2="889" y2="282" stroke="#333333" stroke-width="1.5"/>
<line x1="885" y1="282" x2="880" y2="282" stroke="#333333" stroke-width="1.5"/>
<line x1="876" y1="282" x2="871" y2="282" stroke="#333333" stroke-width="1.5"/>
<line x1="867" y1="282" x2="862" y2="282" stroke="#333333" stroke-width="1.5"/>
<line x1="858" y1="282" x2="853" y2="282" stroke="#333333" stroke-width="1.5"/>
<line x1="849" y1="282" x2="844" y2="282" stroke="#333333" stroke-width="1.5"/>
<line x1="840" y1="282" x2="835" y2="282" stroke="#333333" stroke-width="1.5"/>
<line x1="831" y1="282" x2="826" y2="282" stroke="#333333" stroke-width="1.5"/>
<line x1="822" y1="282" x2="817" y2="282" stroke="#333333" stroke-width="1.5"/>
<line x1="813" y1="282" x2="808" y2="282" stroke="#333333" stroke-width="1.5"/>
<line x1="804" y1="282" x2="799" y2="282" stroke="#333333" stroke-width="1.5"/>
<line x1="795" y1="282" x2="790" y2="282" stroke="#333333" stroke-width="1.5"/>
<line x1="786" y1="282" x2="781" y2="282" stroke="#333333" stroke-width="1.5"/>
<line x1="777" y1="282" x2="772" y2="282" stroke="#333333" stroke-width="1.5"/>
<line x1="768" y1="282" x2="763" y2="282" stroke="#333333" stroke-width="1.5"/>
<line x1="759" y1="282" x2="754" y2="282" stroke="#333333" stroke-width="1.5"/>
<line x1="750" y1="282" x2="745" y2="282" stroke="#333333" stroke-width="1.5"/>
<line x1="741" y1="282" x2="736" y2="282" stroke="#333333" stroke-width="1.5"/>
<line x1="732" y1="282" x2="727" y2="282" stroke="#333333" stroke-width="1.5"/>
<line x1="723" y1="282" x2="718" y2="282" stroke="#333333" stroke-width="1.5"/>
<line x1="714" y1="282" x2="709" y2="282" stroke="#333333" stroke-width="1.5"/>
<line x1="705" y1="282" x2="700" y2="282" stroke="#333333" stroke-width="1.5"/>
<line x1="696" y1="282" x2="691" y2="282" stroke="#333333" stroke-width="1.5"/>
<line x1="687" y1="282" x2="682" y2="282" stroke="#333333" stroke-width="1.5"/>
<line x1="678" y1="282" x2="673" y2="282" stroke="#333333" stroke-width="1.5"/>
<line x1="669" y1="282" x2="664" y2="282" stroke="#333333" stroke-width="1.5"/>
<line x1="660" y1="282" x2="655" y2="282" stroke="#333333" stroke-width="1.5"/>
<line x1="651" y1="282" x2="646" y2="282" stroke="#333333" stroke-width="1.5"/>
<line x1="642" y1="282" x2="637" y2="282" stroke="#333333" stroke-width="1.5"/>
<line x1="633" y1="282" x2="628" y2="282" stroke="#333333" stroke-width="1.5"/>
<line x1="624" y1="282" x2="619" y2="282" stroke="#333333" stroke-width="1.5"/>
<line x1="615" y1="282" x2="610" y2="282" stroke="#333333" stroke-width="1.5"/>
<line x1="606" y1="282" x2="604" y2="282" stroke="#333333" stroke-width="1.5"/>
<line x1="604" y1="282" x2="604" y2="277" stroke="#333333" stroke-width="1.5"/>
<line x1="604" y1="273" x2="604" y2="268" stroke="#333333" stroke-width="1.5"/>
<line x1="604" y1="264" x2="604" y2="259" stroke="#333333" stroke-width="1.5"/>
<line x1="604" y1="255" x2="604" y2="250" stroke="#333333" stroke-width="1.5"/>
<line x1="604" y1="246" x2="604" y2="241" stroke="#333333" stroke-width="1.5"/>
<line x1="604" y1="237" x2="604" y2="232" stroke="#333333" stroke-width="1.5"/>
<line x1="604" y1="228" x2="604" y2="223" stroke="#333333" stroke-width="1.5"/>
<line x1="604" y1="219" x2="604" y2="214" stroke="#333333" stroke-width="1.5"/>
<line x1="604" y1="210" x2="604" y2="205" stroke="#333333" stroke-width="1.5"/>
<line x1="604" y1="201" x2="604" y2="196" stroke="#333333" stroke-width="1.5"/>
<line x1="604" y1="192" x2="604" y2="187" stroke="#333333" stroke-width="1.5"/>
<text x="616" y="206" font-size="11" font-style="italic" text-anchor="start" fill="#555">«execution environment»  Contenedor: Nginx (proxy inverso)</text>
<rect x="620" y="214" width="420" height="56" rx="0" fill="#ffffff" stroke="#333333" stroke-width="1.6"/>
<polygon points="1018,222 1026,222 1030,226 1030,237 1018,237" fill="#ffffff" stroke="#333333" stroke-width="1.2"/>
<polygon points="1026,222 1026,226 1030,226" fill="none" stroke="#333333" stroke-width="1.2"/>
<text x="632" y="233" font-size="10" font-style="italic" text-anchor="start" fill="#555">«artifact»</text>
<text x="632" y="249" font-size="12.5" text-anchor="start" fill="#222222">Certificado TLS · terminación HTTPS</text>
<text x="632" y="263" font-size="12.5" text-anchor="start" fill="#222222">pendiente de configuración</text>
<rect x="604" y="310" width="452" height="152" rx="0" fill="#eef7f0" stroke="#333333" stroke-width="1.6"/>
<text x="616" y="330" font-size="11" font-style="italic" text-anchor="start" fill="#555">«execution environment»  Contenedor: Node.js / Express</text>
<rect x="620" y="338" width="420" height="52" rx="0" fill="#ffffff" stroke="#333333" stroke-width="1.6"/>
<polygon points="1018,346 1026,346 1030,350 1030,361 1018,361" fill="#ffffff" stroke="#333333" stroke-width="1.2"/>
<polygon points="1026,346 1026,350 1030,350" fill="none" stroke="#333333" stroke-width="1.2"/>
<text x="632" y="357" font-size="10" font-style="italic" text-anchor="start" fill="#555">«artifact»</text>
<text x="632" y="373" font-size="12.5" text-anchor="start" fill="#222222">api-rode — API REST</text>
<rect x="620" y="398" width="420" height="52" rx="0" fill="#ffffff" stroke="#333333" stroke-width="1.6"/>
<polygon points="1018,406 1026,406 1030,410 1030,421 1018,421" fill="#ffffff" stroke="#333333" stroke-width="1.2"/>
<polygon points="1026,406 1026,410 1030,410" fill="none" stroke="#333333" stroke-width="1.2"/>
<text x="632" y="417" font-size="10" font-style="italic" text-anchor="start" fill="#555">«artifact»</text>
<text x="632" y="433" font-size="12.5" text-anchor="start" fill="#222222">Build del frontend (archivos estáticos)</text>
<rect x="604" y="492" width="452" height="126" rx="0" fill="#f7eef4" stroke="#333333" stroke-width="1.6"/>
<text x="616" y="512" font-size="11" font-style="italic" text-anchor="start" fill="#555">«execution environment»  Contenedor: MariaDB 11.8</text>
<rect x="620" y="520" width="420" height="52" rx="0" fill="#ffffff" stroke="#333333" stroke-width="1.6"/>
<polygon points="1018,528 1026,528 1030,532 1030,543 1018,543" fill="#ffffff" stroke="#333333" stroke-width="1.2"/>
<polygon points="1026,528 1026,532 1030,532" fill="none" stroke="#333333" stroke-width="1.2"/>
<text x="632" y="539" font-size="10" font-style="italic" text-anchor="start" fill="#555">«artifact»</text>
<text x="632" y="555" font-size="12.5" text-anchor="start" fill="#222222">Base de datos Rode (8 tablas · InnoDB)</text>
<text x="620" y="596" font-size="11" text-anchor="start" fill="#666">Volumen persistente de datos</text>
<rect x="582" y="664" width="496" height="50" rx="0" fill="#fdf6e8" stroke="#333333" stroke-width="1.6"/>
<text x="594" y="686" font-size="11" font-style="italic" text-anchor="start" fill="#555">«artifact» Respaldos automáticos</text>
<text x="594" y="703" font-size="11" text-anchor="start" fill="#222222">diarios 03:00 (America/Bogotá) · retención 14 días</text>
<line x1="404" y1="300" x2="600" y2="246" stroke="#333333" stroke-width="1.8"/>
<polygon points="586.837,243.403 600,246 590.025,254.972" fill="#333333" stroke="#333333" stroke-width="1.6"/>
<text x="492" y="206" font-size="11.5" text-anchor="middle" fill="#222222">«protocolo» HTTPS</text>
<text x="492" y="222" font-size="10" text-anchor="middle" fill="#666">descarga de la PWA</text>
<text x="492" y="236" font-size="10" text-anchor="middle" fill="#666">y llamadas al API REST</text>
<line x1="700" y1="282" x2="700" y2="310" stroke="#333333" stroke-width="1.8"/>
<polygon points="706,298 700,310 694,298" fill="#333333" stroke="#333333" stroke-width="1.6"/>
<text x="714" y="301" font-size="10.5" text-anchor="start" fill="#444">HTTP · red interna de Docker</text>
<line x1="700" y1="462" x2="700" y2="492" stroke="#333333" stroke-width="1.8"/>
<polygon points="706,480 700,492 694,480" fill="#333333" stroke="#333333" stroke-width="1.6"/>
<text x="714" y="470" font-size="10.5" text-anchor="start" fill="#444">«protocolo» TCP/IP · red interna de Docker</text>
<text x="714" y="483" font-size="9.5" text-anchor="start" fill="#777">driver mysql2 · usuario de permisos mínimos</text>
<line x1="700" y1="618" x2="700" y2="664" stroke="#333333" stroke-width="1.6"/>
<polygon points="706,652 700,664 694,652" fill="#333333" stroke="#333333" stroke-width="1.6"/>
<text x="714" y="646" font-size="10.5" text-anchor="start" fill="#444">volcado diario</text>
<rect x="60" y="500" width="330" height="118" rx="0" fill="#fbfbfb" stroke="#bbb" stroke-width="1.2"/>
<text x="74" y="522" font-size="12" font-weight="bold" text-anchor="start" fill="#222222">Convenciones</text>
<text x="74" y="543" font-size="11" text-anchor="start" fill="#222222">«device»  nodo físico</text>
<text x="74" y="561" font-size="11" text-anchor="start" fill="#222222">«execution environment»  entorno de ejecución</text>
<text x="74" y="579" font-size="11" text-anchor="start" fill="#222222">«artifact»  artefacto desplegable</text>
<text x="74" y="601" font-size="11" text-anchor="start" fill="#8a6d1f">Borde punteado: previsto, aún no configurado</text>
<rect x="60" y="634" width="330" height="80" rx="0" fill="#fbfbfb" stroke="#bbb" stroke-width="1.2"/>
<text x="74" y="656" font-size="12" font-weight="bold" text-anchor="start" fill="#222222">Nota</text>
<text x="74" y="675" font-size="10.5" text-anchor="start" fill="#555">El acceso administrativo a la base de datos</text>
<text x="74" y="690" font-size="10.5" text-anchor="start" fill="#555">durante el desarrollo (cliente de escritorio) es</text>
<text x="74" y="705" font-size="10.5" text-anchor="start" fill="#555">temporal y no hace parte de esta arquitectura.</text>
</svg>